<svg width="124" height="20" viewBox="0 0 124 20" fill="none" xmlns="http://www.w3.org/2000/svg">
<path fill-rule="evenodd" clip-rule="evenodd" d="M10 16.3352L3.82825 19.6326L5.00695 12.6486L0.0139066 7.7024L6.91413 6.68343L10 0.329102L13.0859 6.68343L19.9861 7.7024L14.993 12.6486L16.1717 19.6326L10 16.3352Z" fill="#FABA58"/>
<path fill-rule="evenodd" clip-rule="evenodd" d="M36 16.3352L29.8283 19.6326L31.007 12.6486L26.0139 7.7024L32.9141 6.68343L36 0.329102L39.0859 6.68343L45.9861 7.7024L40.993 12.6486L42.1717 19.6326L36 16.3352Z" fill="#FABA58"/>
<path fill-rule="evenodd" clip-rule="evenodd" d="M62 16.3352L55.8283 19.6326L57.007 12.6486L52.0139 7.7024L58.9141 6.68343L62 0.329102L65.0859 6.68343L71.9861 7.7024L66.993 12.6486L68.1717 19.6326L62 16.3352Z" fill="#FABA58"/>
<path fill-rule="evenodd" clip-rule="evenodd" d="M88 16.3352L81.8283 19.6326L83.007 12.6486L78.0139 7.7024L84.9141 6.68343L88 0.329102L91.0859 6.68343L97.9861 7.7024L92.993 12.6486L94.1717 19.6326L88 16.3352Z" fill="#FABA58"/>
<path fill-rule="evenodd" clip-rule="evenodd" d="M114 16.3352L107.828 19.6326L109.007 12.6486L104.014 7.7024L110.914 6.68343L114 0.329102L117.086 6.68343L123.986 7.7024L118.993 12.6486L120.172 19.6326L114 16.3352Z" fill="#FABA58"/>
</svg>
